<?xml version="1.0" encoding="UTF-8"?>
<!DOCTYPE svg PUBLIC "-//W3C//DTD SVG 1.1//EN" "http://www.w3.org/Graphics/SVG/1.1/DTD/svg11.dtd">
<!-- Creator: CorelDRAW X7 -->
<svg xmlns="http://www.w3.org/2000/svg" xml:space="preserve" width="210mm" height="297mm" version="1.1" style="shape-rendering:geometricPrecision; text-rendering:geometricPrecision; image-rendering:optimizeQuality; fill-rule:evenodd; clip-rule:evenodd"
viewBox="0 0 21000 29700"
 xmlns:xlink="http://www.w3.org/1999/xlink">
 <defs>
  <style type="text/css">
   <![CDATA[
    .fil0 {fill:url(#id0)}
   ]]>
  </style>
  <linearGradient id="id0" gradientUnits="userSpaceOnUse" x1="4583.84" y1="-1361.07" x2="16403.6" y2="9358.95">
   <stop offset="0" style="stop-opacity:1; stop-color:#040509"/>
   <stop offset="1" style="stop-opacity:1; stop-color:#5C79C2"/>
  </linearGradient>
 </defs>
 <g id="Camada_x0020_1">
  <metadata id="CorelCorpID_0Corel-Layer"/>
  <path class="fil0" d="M5716 4440l0 0 0 0 0 0zm15298 2206l0 390 0 45 0 8 0 8 0 86 0 102 0 8 0 24c-243,83 -497,155 -817,218 -4104,802 -7549,660 -11560,-703 -2898,-985 -5485,-2763 -8510,-2830 -53,0 -104,-9 -153,-27l0 -248 0 -8 0 -8 0 -974 0 -2758 0 -8 21040 0 0 8 0 2939 0 8 0 8 0 777 0 8 0 8 0 2470 0 8 0 8 0 417 0 8 0 8z"/>
 </g>
</svg>
